# AST/ASF file generated using VICON BodyLanguage
# -----------------------------------------------
:version 1.10
:name VICON
:units
  mass 1.0
  length 0.45
  angle deg
:documentation
   .ast/.asf automatically generated from VICON data using
   VICON BodyBuilder and BodyLanguage model FoxedUp or BRILLIANT.MOD
:root
   order TX TY TZ RX RY RZ
   axis XYZ
   position 0 0 0  
   orientation 0 0 0 
:bonedata
  begin
     id 1 
     name lhipjoint
     direction 0.643272 -0.706573 0.294883 
     length 2.58915 
     axis 0 0 0  XYZ
  end
  begin
     id 2 
     name lfemur
     direction 0.34202 -0.939693 0  
     length 7.06802  
     axis 0 0 20  XYZ
    dof rx ry rz
    limits (-160.0 20.0)
           (-70.0 70.0)
           (-60.0 70.0)
  end
  begin
     id 3 
     name ltibia
     direction 0.34202 -0.939693 0   
     length 7.94147   
     axis 0 0 20   XYZ
    dof rx
    limits (-10.0 170.0)
  end
  begin
     id 4 
     name lfoot
     direction 0.0435058 -0.119531 0.991877   
     length 1.8399   
     axis -90 7.62852e-016 20   XYZ
    dof rx rz
    limits (-45.0 90.0)
           (-70.0 20.0)
  end
  begin
     id 5 
     name ltoes
     direction 1.53505e-011 -4.22157e-011 1   
     length 0.934412   
     axis -90 7.62852e-016 20   XYZ
    dof rx
    limits (-90.0 20.0)
  end
  begin
     id 6 
     name rhipjoint
     direction -0.636801 -0.711547 0.296959   
     length 2.57105  
     axis 0 0 0  XYZ 
  end
  begin
     id 7 
     name rfemur
     direction -0.34202 -0.939693 0   
     length 7.03285   
     axis 0 0 -20   XYZ
    dof rx ry rz
    limits (-160.0 20.0)
           (-70.0 70.0)
           (-70.0 60.0)
  end
  begin
     id 8 
     name rtibia
     direction -0.34202 -0.939693 0   
     length 7.99111   
     axis 0 0 -20   XYZ
    dof rx
    limits (-10.0 170.0)
 end
 begin
     id 9 
     name rfoot
     direction -0.0783088 -0.215152 0.973436   
     length 1.98785  
     axis -90 -7.62852e-016 -20   XYZ
    dof rx rz
    limits (-45.0 90.0)
           (-20.0 70.0)
  end
  begin
     id 10 
     name rtoes
     direction -1.53606e-011 -4.21943e-011 1   
     length 1.001   
     axis -90 -7.62852e-016 -20   XYZ
    dof rx
    limits (-90.0 20.0)
  end
  begin
     id 11 
     name lowerback
     direction 0.00141527 0.998403 -0.0564763   
     length 2.30486   
     axis 0 0 0   XYZ
    dof rx ry rz
    limits (-20.0 45.0)
           (-30.0 30.0)
           (-30.0 30.0)
  end
  begin
     id 12 
     name upperback
     direction 0.0125137 0.999915 0.00361315   
     length 2.30697   
     axis 0 0 0   XYZ
    dof rx ry rz
    limits (-20.0 45.0)
           (-30.0 30.0)
           (-30.0 30.0)
  end
  begin
     id 13 
     name thorax
     direction 0.0136417 0.999471 0.0295116   
     length 2.31005   
     axis 0 0 0   XYZ
    dof rx ry rz
    limits (-20.0 45.0)
           (-30.0 30.0)
           (-30.0 30.0)
  end
  begin
     id 14 
     name lowerneck
     direction 0.0766806 0.997047 0.00422047   
     length 1.68825   
     axis 0 0 0   XYZ
    dof rx ry rz
    limits (-20.0 45.0)
           (-30.0 30.0)
           (-30.0 30.0)
  end
  begin
     id 15 
     name upperneck
     direction -0.143512 0.985106 -0.0947088   
     length 1.69772   
     axis 0 0 0   XYZ
    dof rx ry rz
    limits (-20.0 45.0)
           (-30.0 30.0)
           (-30.0 30.0)
  end
  begin
     id 16
     name head
     direction -0.0539128 0.997849 -0.0372864  
     length 1.71187  
     axis 0 0 0   XYZ
    dof rx ry rz
    limits (-20.0 45.0)
           (-30.0 30.0)
           (-30.0 30.0)
  end
  begin
     id 17 
     name lclavicle
     direction 0.978251 0.207416 -0.00165765  
     length 3.35399  
     axis 0 0 0   XYZ
    dof ry rz
    limits (-20.0 10.0)
           (0.0 20.0)
  end
  begin
     id 18 
     name lhumerus
     direction 1 -4.48966e-011 -1.32191e-028   
     length 5.70706   
     axis 180 -30 -90   XYZ
    dof rx ry rz
    limits (-60.0 90.0)
           (-90.0 90.0)
           (-90.0 90.0)
  end
  begin
     id 19
     name lradius
     direction 1 -4.48976e-011 9.36106e-027   
     length 3.33243   
     axis 180 -30 -90   XYZ
    dof rx
    limits (-10.0 170.0)
  end
  begin
     id 20
     name lwrist
     direction 1 -4.48976e-011 1.1555e-026   
     length 1.66621   
     axis -5.7412e-015 90 90   XYZ
    dof ry
    limits (-180.0 0.0)
 end
  begin
     id 21 
     name lhand
     direction 1 -4.48939e-011 2.31113e-026   
     length 0.792687   
     axis -1.47463e-014 90 90   XYZ
    dof rx rz
    limits (-90.0 90.0)
           (-45.0 45.0)
  end
  begin
     id 22 
     name lfingers
     direction 1 -4.48866e-011 4.62274e-026   
     length 0.639085   
     axis -2.94925e-014 90 90   XYZ
    dof rx
    limits (0.0 90.0)
  end
  begin
     id 23
     name lthumb
     direction 0.707107 -6.34847e-011 0.707107   
     length 0.917601   
     axis -90 45 -6.68868e-015   XYZ
    dof rx rz
    limits (-45.0 45.0)
           (-45.0 45.0)
  end
  begin
     id 24 
     name rclavicle
     direction -0.981813 0.185514 0.0403428   
     length 3.47271  
     axis 0 0 0   XYZ 
    dof ry rz
    limits (-10.0 20.0)
           (-20.0 0.0)
  end
  begin
     id 25 
     name rhumerus
     direction -1 -4.48972e-011 -6.58544e-029  
     length 5.88176   
     axis 180 30 90   XYZ
    dof rx ry rz
    limits (-90.0 60.0)
           (-90.0 90.0)
           (-90.0 90.0)
  end
  begin
     id 26 
     name rradius
     direction -1 -4.48964e-011 8.36306e-027   
     length 3.28156   
     axis 180 30 90   XYZ
    dof rx
    limits (-10.0 170.0)
  end
  begin
     id 27 
     name rwrist
     direction -1 -4.48903e-011 1.15562e-026   
     length 1.64078   
     axis -5.7412e-015 -90 -90   XYZ
    dof ry
    limits (-180.0 0.0)
  end
  begin
     id 28
     name rhand
     direction -1 -4.49055e-011 2.31074e-026   
     length 0.863125   
     axis -1.47463e-014 -90 -90   XYZ
    dof rx rz
    limits (-90.0 90.0)
           (-45.0 45.0)
  end
  begin
     id 29
     name rfingers
     direction -1 -4.48994e-011 4.62188e-026   
     length 0.695873   
     axis -2.94925e-014 -90 -90   XYZ
    dof rx
    limits (0.0 90.0)
  end
  begin
     id 30
     name rthumb
     direction -0.707107 -6.35058e-011 0.707107   
     length 0.999139   
     axis -90 -45 6.68868e-015   XYZ
    dof rx rz
    limits (-45.0 45.0)
           (-45.0 45.0)
  end
:hierarchy
  begin
    root lhipjoint rhipjoint lowerback
    lhipjoint lfemur
    lfemur ltibia
    ltibia lfoot
    lfoot ltoes
    rhipjoint rfemur
    rfemur rtibia
    rtibia rfoot
    rfoot rtoes
    lowerback upperback
    upperback thorax
    thorax lowerneck lclavicle rclavicle
    lowerneck upperneck
    upperneck head
    lclavicle lhumerus
    lhumerus lradius
    lradius lwrist
    lwrist lhand lthumb
    lhand lfingers
    rclavicle rhumerus
    rhumerus rradius
    rradius rwrist
    rwrist rhand rthumb
    rhand rfingers
  end

#!OML:ASF \\Waltz\H\Terrain\Patient Classification 1\Animal2\Wednesday\Animal2.ASF
:FULLY-SPECIFIED
:DEGREES
818
root -0.0892737 17.4114 -9.01437 -1.08503 7.20688 -7.34046
lowerback 5.49075 -2.62214 4.13766
upperback -2.05935 -3.08899 1.95483
thorax -5.33539 -1.63063 0.0274175
lowerneck 6.82332 4.17668 15.3815
upperneck -13.2036 5.15109 -18.8861
head -4.0065 2.9793 -8.86939
rclavicle 2.12575e-014 -1.39149e-014
rhumerus 15.9784 38.942 -56.7858
rradius 91.54
rwrist -19.1966
rhand -9.31481 18.2443
rfingers 7.12502
rthumb 16.6434 -11.0621
lclavicle 2.12575e-014 -1.39149e-014
lhumerus 27.3812 13.9051 31.1924
lradius 78.3522
lwrist 0.627545
lhand -50.6787 20.5723
lfingers 7.12502
lthumb -23.2404 49.1899
rfemur -7.20434 -5.087 31.2621
rtibia 30.7578
rfoot -23.3688 4.2193
rtoes 27.7344
lfemur -20.7013 -7.05282 -11.447
ltibia 43.2726
lfoot -22.3093 -4.42443
ltoes -19.9554
819
root -0.0743797 17.4017 -8.99995 -1.02852 7.34755 -6.90779
lowerback 5.67902 -2.6843 3.82779
upperback -2.17316 -3.18669 1.85487
thorax -5.55285 -1.67324 0.120069
lowerneck 7.15382 4.19691 15.3445
upperneck -13.3841 5.19059 -18.958
head -4.10856 3.019 -8.90986
rclavicle -2.20775e-014 -1.39149e-014
rhumerus 15.8954 38.9004 -56.7732
rradius 91.3293
rwrist -19.3707
rhand -8.25483 18.8275
rfingers 7.12502
rthumb 17.6636 -10.3902
lclavicle -2.20775e-014 -1.39149e-014
lhumerus 27.3679 13.815 31.6501
lradius 78.3963
lwrist 0.933959
lhand -50.0789 20.3629
lfingers 7.12502
lthumb -22.6648 49.052
rfemur -7.73004 -4.82585 30.8674
rtibia 31.8428
rfoot -23.7227 3.0353
rtoes 25.5658
lfemur -20.6532 -6.44299 -11.9525
ltibia 43.1545
lfoot -22.1156 -5.11839
ltoes -18.8816
820
root -0.0562274 17.4012 -8.98068 -0.896078 7.42959 -6.37655
lowerback 5.52123 -2.73933 3.48984
upperback -2.12892 -3.30478 1.69439
thorax -5.40872 -1.7218 0.143823
lowerneck 7.36652 4.26776 15.3519
upperneck -13.6439 5.27923 -19.0564
head -4.20141 3.07802 -8.9671
rclavicle 1.0138e-014 1.19271e-015
rhumerus 16.0245 38.8016 -56.6762
rradius 91.2925
rwrist -19.3475
rhand -7.30959 18.8274
rfingers 7.12502
rthumb 18.573 -10.3059
lclavicle 1.0138e-014 1.19271e-015
lhumerus 27.4973 13.931 32.0963
lradius 78.475
lwrist 1.22951
lhand -49.8196 20.0977
lfingers 7.12502
lthumb -22.416 48.817
rfemur -8.31361 -4.70168 30.302
rtibia 32.9641
rfoot -23.9347 2.29378
rtoes 24.6158
lfemur -20.5647 -5.74617 -12.5717
ltibia 42.9655
lfoot -21.9901 -5.68006
ltoes -18.9325
821
root -0.0341141 17.4053 -8.95706 -0.838658 7.39295 -5.93578
lowerback 5.36621 -2.796 3.33914
upperback -2.09306 -3.41018 1.50301
thorax -5.28792 -1.77145 0.0306057
lowerneck 7.81428 4.30862 15.3324
upperneck -14.0312 5.35371 -19.0348
head -4.38223 3.1334 -8.99522
rclavicle -6.10269e-014 1.07344e-014
rhumerus 16.1113 38.8705 -56.6557
rradius 91.391
rwrist -19.1425
rhand -6.59762 18.6031
rfingers 7.12502
rthumb 19.2578 -10.4634
lclavicle -6.10269e-014 1.07344e-014
lhumerus 27.4819 14.0166 32.2625
lradius 78.6518
lwrist 1.61842
lhand -49.8602 19.7816
lfingers 7.12502
lthumb -22.4549 48.4962
rfemur -8.79029 -4.40657 29.82
rtibia 34.0217
rfoot -24.1199 1.94901
rtoes 25.6907
lfemur -20.318 -5.03786 -13.1146
ltibia 42.7303
lfoot -21.9674 -6.08801
ltoes -19.7135
822
root -0.00784844 17.4068 -8.93417 -0.919332 7.30452 -5.744
lowerback 5.46369 -2.88105 3.53972
upperback -2.12827 -3.51147 1.33002
thorax -5.40717 -1.83246 -0.242267
lowerneck 8.40726 4.34022 15.414
upperneck -14.4354 5.4363 -19.1007
head -4.58597 3.19862 -9.08026
rclavicle -2.40778e-014 -4.96962e-015
rhumerus 16.1371 39.0608 -56.7887
rradius 91.4424
rwrist -18.9387
rhand -5.87755 18.7227
rfingers 7.12502
rthumb 19.9501 -10.2732
lclavicle -2.40778e-014 -4.96962e-015
lhumerus 27.2422 14.019 32.3078
lradius 78.9664
lwrist 2.26325
lhand -49.6222 19.532
lfingers 7.12502
lthumb -22.2265 48.274
rfemur -9.12691 -4.1851 29.5803
rtibia 34.995
rfoot -24.426 1.91303
rtoes 27.5765
lfemur -19.9512 -4.3525 -13.4046
ltibia 42.483
lfoot -21.9885 -6.66739
ltoes -19.9535
823
root 0.0172194 17.4163 -8.91408 -0.882421 7.21411 -5.54673
lowerback 5.50696 -2.98751 3.68251
upperback -2.17231 -3.64407 1.23633
thorax -5.49853 -1.90575 -0.399937
lowerneck 8.69367 4.46361 15.3826
upperneck -14.6083 5.60155 -19.2628
head -4.65092 3.30434 -9.15518
rclavicle 8.83349e-015 -4.17448e-015
rhumerus 16.464 39.331 -56.7077
rradius 91.3882
rwrist -18.8243
rhand -5.17467 18.9142
rfingers 7.12502
rthumb 20.6256 -10.0099
lclavicle 8.83349e-015 -4.17448e-015
lhumerus 26.9475 14.2355 32.5713
lradius 79.3217
lwrist 2.9511
lhand -49.0933 19.491
lfingers 7.12502
lthumb -21.7186 48.2927
rfemur -9.62159 -4.06654 29.3203
rtibia 35.954
rfoot -24.6487 1.81138
rtoes 28.9584
lfemur -19.7517 -3.71947 -13.6954
ltibia 42.2475
lfoot -21.9476 -7.24864
ltoes -19.8844
824
root 0.0382439 17.4298 -8.89676 -0.809567 7.00417 -5.38237
lowerback 5.50452 -3.06747 3.77435
upperback -2.18186 -3.7433 1.24188
thorax -5.51704 -1.95807 -0.433962
lowerneck 8.79891 4.70738 15.0877
upperneck -14.6585 5.89617 -19.3217
head -4.63662 3.47338 -9.13445
rclavicle -4.09372e-014 3.57812e-015
rhumerus 16.9156 39.6376 -56.4509
rradius 91.3136
rwrist -18.6792
rhand -4.4517 19.0301
rfingers 7.12502
rthumb 21.3201 -9.81707
lclavicle -4.09372e-014 3.57812e-015
lhumerus 26.7201 14.6022 32.9976
lradius 79.697
lwrist 3.7533
lhand -48.8362 20.0174
lfingers 7.12502
lthumb -21.4717 48.8475
rfemur -10.1569 -3.88033 29.1502
rtibia 36.9604
rfoot -24.7442 0.940875
rtoes 28.3222
lfemur -19.6107 -3.06028 -13.9219
ltibia 42.0131
lfoot -21.7137 -7.88072
ltoes -18.4654
825
root 0.0629741 17.4269 -8.88556 -0.77269 6.67585 -4.97443
lowerback 5.57029 -3.11093 3.71801
upperback -2.18035 -3.80715 1.15172
thorax -5.55778 -1.98965 -0.485338
lowerneck 8.9359 4.94248 14.9321
upperneck -14.6797 6.19168 -19.4955
head -4.6095 3.64485 -9.17791
rclavicle 1.89032e-014 -5.96354e-015
rhumerus 17.2578 39.9061 -56.345
rradius 91.2174
rwrist -18.4439
rhand -3.65088 19.3819
rfingers 7.12502
rthumb 22.0892 -9.37639
lclavicle 1.89032e-014 -5.96354e-015
lhumerus 26.529 14.9487 33.3816
lradius 80.1392
lwrist 4.802
lhand -48.4777 20.484
lfingers 7.12502
lthumb -21.1274 49.3529
rfemur -10.61 -3.75952 28.7184
rtibia 38.0589
rfoot -24.9162 -0.10946
rtoes 25.9383
lfemur -19.366 -2.45404 -14.4383
ltibia 41.7409
lfoot -21.4343 -8.33281
ltoes -16.6906
826
root 0.0938288 17.4252 -8.87048 -0.731408 6.39944 -4.29656
lowerback 5.61901 -3.16329 3.48797
upperback -2.21609 -3.90407 0.921267
thorax -5.62693 -2.03491 -0.581587
lowerneck 8.9165 5.07315 15.1874
upperneck -14.3895 6.38653 -19.9276
head -4.45343 3.75555 -9.35702
rclavicle 9.00743e-015 9.34288e-015
rhumerus 17.5519 40.2638 -56.293
rradius 91.1602
rwrist -18.3175
rhand -3.0937 19.7655
rfingers 7.12502
rthumb 22.624 -8.92855
lclavicle 9.00743e-015 9.34288e-015
lhumerus 26.3387 15.1504 33.5718
lradius 80.5334
lwrist 6.19613
lhand -48.2262 20.5104
lfingers 7.12502
lthumb -20.8858 49.4061
rfemur -11.1095 -3.86143 27.9212
rtibia 39.1876
rfoot -25.1145 -0.588129
rtoes 23.6586
lfemur -19.035 -2.04017 -15.3021
ltibia 41.4336
lfoot -21.2519 -8.47515
ltoes -15.9867
827
root 0.124983 17.4326 -8.84687 -0.879008 6.13455 -3.73703
lowerback 5.79235 -3.19089 3.35004
upperback -2.24742 -3.95563 0.697237
thorax -5.76706 -2.06109 -0.719884
lowerneck 9.13877 5.17301 15.466
upperneck -14.1839 6.57148 -20.3154
head -4.36746 3.86758 -9.54181
rclavicle 1.40143e-014 5.46658e-015
rhumerus 17.7356 40.6617 -56.1468
rradius 91.1302
rwrist -18.3398
rhand -2.53196 20.183
rfingers 7.12502
rthumb 23.1631 -8.44437
lclavicle 1.40143e-014 5.46658e-015
lhumerus 26.1669 15.0856 33.5816
lradius 80.9531
lwrist 8.2526
lhand -48.907 20.4658
lfingers 7.12502
lthumb -21.5397 49.288
rfemur -11.4025 -4.0365 27.2565
rtibia 40.2555
rfoot -25.342 -1.20103
rtoes 20.3924
lfemur -18.4599 -1.74751 -16.0447
ltibia 41.1293
lfoot -21.1822 -8.52155
ltoes -16.0343
828
root 0.152251 17.4335 -8.82681 -0.984823 5.74032 -3.43044
lowerback 5.82084 -3.17427 3.41992
upperback -2.18451 -3.93402 0.579733
thorax -5.7297 -2.05426 -0.883615
lowerneck 9.72564 5.36729 15.328
upperneck -14.5875 6.82801 -20.4929
head -4.53734 4.04027 -9.63404
rclavicle 2.61526e-015 2.98177e-015
rhumerus 18.1959 40.9318 -55.8029
rradius 90.9408
rwrist -18.3326
rhand -1.65233 20.8833
rfingers 7.12502
rthumb 24.0068 -7.63544
lclavicle 2.61526e-015 2.98177e-015
lhumerus 26.1626 15.2257 33.8369
lradius 81.3432
lwrist 10.3592
lhand -49.5773 20.3424
lfingers 7.12502
lthumb -22.1834 49.0895
rfemur -11.7788 -3.9875 26.9307
rtibia 41.2189
rfoot -25.5786 -1.9768
rtoes 17.6451
lfemur -17.9718 -1.42655 -16.4788
ltibia 40.8325
lfoot -21.1118 -8.47249
ltoes -16.0885
